<svg xmlns="http://www.w3.org/2000/svg" viewBox="0 0 219.76 57.65"><defs><style>.cls-1{fill:#f6921e;}.cls-2{fill:#404041;}</style></defs><g id="Layer_2" data-name="Layer 2"><g id="Layer_1-2" data-name="Layer 1"><polygon class="cls-1" points="33.8 44.26 11.81 20.14 20.37 7.99 33.8 7.99 47.23 7.99 54 17.59 65.45 17.59 52.9 0 33.8 0 14.7 0 0 20.61 25 47.75 33.8 57.65 42.6 47.75 67.6 20.61 67.27 20.14 56.26 20.14 55.8 20.14 24.43 20.14 31.25 28.13 48.58 28.13 33.8 44.26"/><path class="cls-2" d="M96.68,42.84a7.06,7.06,0,0,1-.5-2.19,8,8,0,0,1-5.93,2.58,7.37,7.37,0,0,1-5.06-1.74,5.64,5.64,0,0,1-2-4.42A5.89,5.89,0,0,1,85.69,32a11.67,11.67,0,0,1,7-1.8h3.47V28.57a4,4,0,0,0-1.12-3,4.47,4.47,0,0,0-3.29-1.11,5.22,5.22,0,0,0-3.2,1,2.85,2.85,0,0,0-1.29,2.34H83.64a4.91,4.91,0,0,1,1.11-3,7.63,7.63,0,0,1,3-2.3,10.23,10.23,0,0,1,4.17-.85,8.23,8.23,0,0,1,5.64,1.8,6.51,6.51,0,0,1,2.12,5V38a11.73,11.73,0,0,0,.73,4.57v.3Zm-5.92-2.71a6.24,6.24,0,0,0,3.18-.87A5.29,5.29,0,0,0,96.12,37V32.73H93.33q-6.56,0-6.55,3.84a3.21,3.21,0,0,0,1.12,2.61A4.27,4.27,0,0,0,90.76,40.13Z"/><path class="cls-2" d="M115.34,25.2a12,12,0,0,0-1.76-.13,4.68,4.68,0,0,0-4.75,3V42.84h-3.56V22h3.46l.06,2.4a5.55,5.55,0,0,1,5-2.79,3.65,3.65,0,0,1,1.58.27Z"/><path class="cls-2" d="M124.4,17V22h3.89v2.75H124.4V37.7a3,3,0,0,0,.52,1.88,2.2,2.2,0,0,0,1.78.62,8.16,8.16,0,0,0,1.69-.23v2.88a10.62,10.62,0,0,1-2.73.38,4.41,4.41,0,0,1-3.6-1.45,6.19,6.19,0,0,1-1.22-4.1V24.76h-3.79V22h3.79V17Z"/><path class="cls-2" d="M132.47,16.48A2.13,2.13,0,0,1,133,15a2.37,2.37,0,0,1,3.15,0,2.09,2.09,0,0,1,.54,1.46A2.21,2.21,0,0,1,133,17.93,2.09,2.09,0,0,1,132.47,16.48Zm3.85,26.36h-3.56V22h3.56Z"/><path class="cls-2" d="M164.4,39.38a11,11,0,0,1-4.56,2.79,19.89,19.89,0,0,1-6.59,1.06,11.74,11.74,0,0,1-8.8-3.37q-3.28-3.37-3.52-9.38l0-2.43a16.81,16.81,0,0,1,1.46-7.23,10.86,10.86,0,0,1,4.19-4.75,11.87,11.87,0,0,1,6.31-1.67q5.24,0,8.13,2.4A10.16,10.16,0,0,1,164.38,24h-6.51a5.33,5.33,0,0,0-1.5-3.35,4.83,4.83,0,0,0-3.27-1,4.4,4.4,0,0,0-3.93,2.16,11.52,11.52,0,0,0-1.41,6.16v1.69q0,4.2,1.44,6.31A5.05,5.05,0,0,0,153.71,38a5.65,5.65,0,0,0,3.93-1.18V32.5h-4.7V27.86H164.4Z"/><path class="cls-2" d="M178.11,43.23a10.69,10.69,0,0,1-7.76-2.86,9.87,9.87,0,0,1-3-7.44v-.54a12.83,12.83,0,0,1,1.18-5.65A8.68,8.68,0,0,1,172,23a10.44,10.44,0,0,1,5.39-1.34,9,9,0,0,1,6.93,2.73c1.69,1.81,2.54,4.35,2.54,7.59v2.53H174a4.71,4.71,0,0,0,1.52,2.75,4.51,4.51,0,0,0,3,1,5.84,5.84,0,0,0,4.82-2.16l3,3.51a8.2,8.2,0,0,1-3.43,2.67A11.67,11.67,0,0,1,178.11,43.23Zm-.73-16.6q-2.85,0-3.39,3.77h6.55v-.5a3.23,3.23,0,0,0-.79-2.41A3.11,3.11,0,0,0,177.38,26.63Z"/><path class="cls-2" d="M195.64,22l.21,2.44a7.17,7.17,0,0,1,6-2.83q3.94,0,5.33,3.14a6.93,6.93,0,0,1,6.12-3.14q6.34,0,6.51,7.67V42.84h-6.51V29.69a4,4,0,0,0-.53-2.33,2.3,2.3,0,0,0-2-.73,3.08,3.08,0,0,0-2.87,1.71l0,.27V42.84h-6.51V29.73a4.16,4.16,0,0,0-.52-2.37,2.27,2.27,0,0,0-2-.73A3.1,3.1,0,0,0,196,28.34v14.5h-6.49V22Z"/></g></g></svg>