<svg xmlns="http://www.w3.org/2000/svg" viewBox="0 0 220 57.65"><defs><style>.cls-1{fill:#f6921e;}.cls-2{fill:#404041;}.cls-3{fill:#6d6e70;}</style></defs><g id="Layer_2" data-name="Layer 2"><g id="Layer_1-2" data-name="Layer 1"><polygon class="cls-1" points="33.8 44.26 11.81 20.14 20.37 7.99 33.8 7.99 47.23 7.99 54 17.59 65.45 17.59 52.9 0 33.8 0 14.7 0 0 20.61 25 47.75 33.8 57.65 42.6 47.75 67.6 20.61 67.27 20.14 56.26 20.14 55.8 20.14 24.43 20.14 31.25 28.13 48.58 28.13 33.8 44.26"/><path class="cls-2" d="M96.68,35.4a7.22,7.22,0,0,1-.5-2.2,8,8,0,0,1-5.94,2.58,7.36,7.36,0,0,1-5-1.74,5.63,5.63,0,0,1-2-4.42,5.89,5.89,0,0,1,2.47-5.06,11.67,11.67,0,0,1,7-1.8h3.47V21.13a4,4,0,0,0-1.12-3A4.47,4.47,0,0,0,91.71,17a5.22,5.22,0,0,0-3.2,1,2.84,2.84,0,0,0-1.29,2.33H83.64a4.93,4.93,0,0,1,1.11-3,7.63,7.63,0,0,1,3-2.3,10.23,10.23,0,0,1,4.17-.85A8.24,8.24,0,0,1,97.56,16a6.48,6.48,0,0,1,2.12,4.95v9.59a11.7,11.7,0,0,0,.73,4.57v.31Zm-5.92-2.72a6.24,6.24,0,0,0,3.18-.87,5.19,5.19,0,0,0,2.18-2.25V25.29H93.33c-4.37,0-6.55,1.27-6.55,3.83a3.24,3.24,0,0,0,1.12,2.62A4.27,4.27,0,0,0,90.76,32.68Z"/><path class="cls-2" d="M115.34,17.76a10.73,10.73,0,0,0-1.76-.14,4.69,4.69,0,0,0-4.75,3V35.4h-3.56V14.56h3.46l.06,2.41a5.56,5.56,0,0,1,5-2.8,3.65,3.65,0,0,1,1.58.27Z"/><path class="cls-2" d="M124.41,9.51v5.05h3.88v2.75h-3.88V30.25a2.93,2.93,0,0,0,.51,1.88,2.2,2.2,0,0,0,1.78.63,8.91,8.91,0,0,0,1.69-.23V35.4a10.62,10.62,0,0,1-2.73.38,4.43,4.43,0,0,1-3.6-1.44,6.22,6.22,0,0,1-1.22-4.11V17.31h-3.79V14.56h3.79V9.51Z"/><path class="cls-2" d="M132.47,9A2.15,2.15,0,0,1,133,7.57a2.37,2.37,0,0,1,3.15,0A2.11,2.11,0,0,1,136.69,9a2.05,2.05,0,0,1-.54,1.45,2.43,2.43,0,0,1-3.15,0A2.09,2.09,0,0,1,132.47,9Zm3.85,26.37h-3.56V14.56h3.56Z"/><path class="cls-2" d="M164.4,31.93a10.86,10.86,0,0,1-4.56,2.79,19.63,19.63,0,0,1-6.59,1.06,11.74,11.74,0,0,1-8.8-3.37Q141.17,29,140.93,23l0-2.42a16.81,16.81,0,0,1,1.46-7.23,10.89,10.89,0,0,1,4.19-4.76A11.87,11.87,0,0,1,152.87,7q5.24,0,8.13,2.4a10.16,10.16,0,0,1,3.38,7.15h-6.51a5.33,5.33,0,0,0-1.5-3.35,4.88,4.88,0,0,0-3.27-1,4.4,4.4,0,0,0-3.93,2.16,11.52,11.52,0,0,0-1.41,6.16v1.7q0,4.2,1.44,6.3a5.05,5.05,0,0,0,4.51,2.11,5.7,5.7,0,0,0,3.93-1.17V25.05h-4.7V20.41H164.4Z"/><path class="cls-2" d="M178.11,35.78a10.69,10.69,0,0,1-7.76-2.86,9.87,9.87,0,0,1-3-7.44v-.54a12.78,12.78,0,0,1,1.18-5.64A8.71,8.71,0,0,1,172,15.51a10.44,10.44,0,0,1,5.39-1.34,9,9,0,0,1,6.93,2.73q2.53,2.73,2.54,7.6V27H174a4.65,4.65,0,0,0,1.52,2.75,4.51,4.51,0,0,0,3,1,5.83,5.83,0,0,0,4.82-2.15l3,3.5a8.2,8.2,0,0,1-3.43,2.67A11.67,11.67,0,0,1,178.11,35.78Zm-.73-16.6q-2.85,0-3.39,3.78h6.55v-.5a3.25,3.25,0,0,0-.79-2.42A3.14,3.14,0,0,0,177.38,19.18Z"/><path class="cls-2" d="M195.64,14.56l.21,2.45a7.16,7.16,0,0,1,6-2.84q3.94,0,5.33,3.14a6.93,6.93,0,0,1,6.12-3.14q6.34,0,6.51,7.67V35.4h-6.51V22.24a4.07,4.07,0,0,0-.53-2.33,2.33,2.33,0,0,0-2-.73,3.07,3.07,0,0,0-2.87,1.72l0,.26V35.4h-6.51V22.28a4.16,4.16,0,0,0-.52-2.37,2.29,2.29,0,0,0-2-.73A3.1,3.1,0,0,0,196,20.9V35.4h-6.49V14.56Z"/><path class="cls-3" d="M84.73,45.58l2.26,6,2.25-6H91V53.4H89.64V50.83l.14-3.45-2.31,6h-1l-2.3-6,.13,3.45V53.4H83V45.58Z"/><path class="cls-3" d="M96,53.4a1.8,1.8,0,0,1-.15-.54,2.2,2.2,0,0,1-3,.15,1.61,1.61,0,0,1-.55-1.23A1.66,1.66,0,0,1,93,50.35a3.35,3.35,0,0,1,2-.5h.8v-.38a1,1,0,0,0-.25-.72,1,1,0,0,0-.76-.27,1.16,1.16,0,0,0-.74.22.69.69,0,0,0-.28.57H92.41a1.48,1.48,0,0,1,.32-.9,2.2,2.2,0,0,1,.86-.65,3,3,0,0,1,1.22-.24,2.47,2.47,0,0,1,1.63.52,1.83,1.83,0,0,1,.62,1.44v2.62a2.92,2.92,0,0,0,.22,1.25v.09Zm-1.44-.94a1.55,1.55,0,0,0,.73-.18,1.25,1.25,0,0,0,.51-.51V50.68h-.7a1.91,1.91,0,0,0-1.09.25.81.81,0,0,0-.36.71.76.76,0,0,0,.25.6A.94.94,0,0,0,94.51,52.46Z"/><path class="cls-3" d="M100.32,50.91l-.58.6V53.4H98.43V45.15h1.31v4.76l.4-.51,1.61-1.81h1.57L101.16,50l2.39,3.39H102Z"/><path class="cls-3" d="M104.17,46.08a.67.67,0,0,1,.74-.7.72.72,0,0,1,.54.2.7.7,0,0,1,.2.5.66.66,0,0,1-.2.49.68.68,0,0,1-.54.2.7.7,0,0,1-.55-.2A.7.7,0,0,1,104.17,46.08Zm1.39,7.32h-1.31V47.59h1.31Z"/><path class="cls-3" d="M108.19,47.59l0,.67a2.08,2.08,0,0,1,1.69-.78c1.21,0,1.82.7,1.85,2.08V53.4h-1.31V49.64a1.2,1.2,0,0,0-.24-.82,1,1,0,0,0-.78-.27,1.26,1.26,0,0,0-1.18.72V53.4H107V47.59Z"/><path class="cls-3" d="M112.87,50.46a3.44,3.44,0,0,1,.63-2.17,2.05,2.05,0,0,1,1.69-.81,1.93,1.93,0,0,1,1.57.7l.06-.59H118v5.64a2.35,2.35,0,0,1-.71,1.8,2.73,2.73,0,0,1-1.92.66,3.22,3.22,0,0,1-1.25-.26,2.27,2.27,0,0,1-.93-.7l.62-.78a1.88,1.88,0,0,0,1.48.71,1.46,1.46,0,0,0,1-.35,1.37,1.37,0,0,0,.38-1v-.39a1.93,1.93,0,0,1-1.51.63,2.05,2.05,0,0,1-1.67-.81A3.51,3.51,0,0,1,112.87,50.46Zm1.3.11a2.43,2.43,0,0,0,.35,1.38,1.16,1.16,0,0,0,1,.5,1.28,1.28,0,0,0,1.18-.68V49.21a1.25,1.25,0,0,0-1.16-.66,1.17,1.17,0,0,0-1,.51A2.72,2.72,0,0,0,114.17,50.57Z"/><path class="cls-3" d="M124.1,51.53l1.18-3.94h1.4l-2.31,6.69a1.89,1.89,0,0,1-1.81,1.47,2.16,2.16,0,0,1-.63-.1v-1l.25,0a1.32,1.32,0,0,0,.74-.18,1.23,1.23,0,0,0,.4-.61l.19-.5-2-5.78h1.4Z"/><path class="cls-3" d="M127.1,50.44a3.31,3.31,0,0,1,.34-1.53,2.45,2.45,0,0,1,.95-1.06,2.74,2.74,0,0,1,1.41-.37,2.57,2.57,0,0,1,1.91.76,3,3,0,0,1,.79,2v.31a3.44,3.44,0,0,1-.33,1.53,2.46,2.46,0,0,1-.94,1,2.69,2.69,0,0,1-1.42.37,2.51,2.51,0,0,1-2-.82,3.13,3.13,0,0,1-.74-2.18Zm1.31.12a2.31,2.31,0,0,0,.37,1.4,1.29,1.29,0,0,0,2.06,0,2.61,2.61,0,0,0,.36-1.51,2.31,2.31,0,0,0-.37-1.39,1.21,1.21,0,0,0-1-.52,1.2,1.2,0,0,0-1,.51A2.54,2.54,0,0,0,128.41,50.56Z"/><path class="cls-3" d="M137.13,52.83a2,2,0,0,1-1.64.68,1.82,1.82,0,0,1-1.43-.55,2.37,2.37,0,0,1-.48-1.6V47.59h1.3v3.75c0,.74.31,1.11.92,1.11a1.29,1.29,0,0,0,1.28-.68V47.59h1.31V53.4h-1.23Z"/><path class="cls-3" d="M142.76,48.78a4.55,4.55,0,0,0-.53,0,1.2,1.2,0,0,0-1.21.69v4h-1.3V47.59H141l0,.65a1.47,1.47,0,0,1,1.31-.76,1.22,1.22,0,0,1,.46.08Z"/><path class="cls-3" d="M151.43,50.56a3.5,3.5,0,0,1-.61,2.15,2,2,0,0,1-1.66.8,1.89,1.89,0,0,1-1.59-.73l-.07.62h-1.18V45.15h1.31v3a1.89,1.89,0,0,1,1.52-.67,2,2,0,0,1,1.67.79,3.6,3.6,0,0,1,.61,2.21Zm-1.31-.12a2.45,2.45,0,0,0-.33-1.41,1.11,1.11,0,0,0-1-.48,1.21,1.21,0,0,0-1.19.74v2.4a1.21,1.21,0,0,0,1.2.76,1.11,1.11,0,0,0,.95-.46,2.41,2.41,0,0,0,.34-1.38Z"/><path class="cls-3" d="M155.56,48.78a4.55,4.55,0,0,0-.53,0,1.2,1.2,0,0,0-1.21.69v4h-1.3V47.59h1.24l0,.65a1.5,1.5,0,0,1,1.32-.76,1.22,1.22,0,0,1,.46.08Z"/><path class="cls-3" d="M159.7,53.4a1.8,1.8,0,0,1-.15-.54,2.2,2.2,0,0,1-3,.15,1.58,1.58,0,0,1-.55-1.23,1.66,1.66,0,0,1,.69-1.43,3.35,3.35,0,0,1,2-.5h.8v-.38a.91.91,0,0,0-1-1,1.15,1.15,0,0,0-.73.22.69.69,0,0,0-.28.57h-1.31a1.48,1.48,0,0,1,.32-.9,2.2,2.2,0,0,1,.86-.65,3,3,0,0,1,1.22-.24,2.47,2.47,0,0,1,1.63.52,1.83,1.83,0,0,1,.62,1.44v2.62a2.92,2.92,0,0,0,.22,1.25v.09Zm-1.44-.94a1.55,1.55,0,0,0,.73-.18,1.25,1.25,0,0,0,.51-.51V50.68h-.7a1.91,1.91,0,0,0-1.09.25.81.81,0,0,0-.36.71.78.78,0,0,0,.24.6A1,1,0,0,0,158.26,52.46Z"/><path class="cls-3" d="M163.39,47.59l0,.67a2.08,2.08,0,0,1,1.69-.78c1.21,0,1.82.7,1.84,2.08V53.4h-1.3V49.64a1.2,1.2,0,0,0-.24-.82,1,1,0,0,0-.78-.27,1.26,1.26,0,0,0-1.18.72V53.4h-1.3V47.59Z"/><path class="cls-3" d="M168.05,50.46a3.48,3.48,0,0,1,.62-2.16,2,2,0,0,1,1.67-.82,1.91,1.91,0,0,1,1.5.65v-3h1.3V53.4H172l-.06-.6a2,2,0,0,1-1.57.71,2,2,0,0,1-1.65-.82A3.58,3.58,0,0,1,168.05,50.46Zm1.31.11A2.39,2.39,0,0,0,169.7,52a1.1,1.1,0,0,0,1,.5,1.24,1.24,0,0,0,1.17-.72V49.25a1.23,1.23,0,0,0-1.16-.7,1.11,1.11,0,0,0-1,.51A2.66,2.66,0,0,0,169.36,50.57Z"/><path class="cls-3" d="M177,50.46a3.44,3.44,0,0,1,.64-2.17,2,2,0,0,1,1.69-.81,1.92,1.92,0,0,1,1.56.7l.06-.59h1.18v5.64a2.35,2.35,0,0,1-.71,1.8,2.73,2.73,0,0,1-1.92.66,3.18,3.18,0,0,1-1.25-.26,2.2,2.2,0,0,1-.93-.7L178,54a1.87,1.87,0,0,0,1.48.71,1.48,1.48,0,0,0,1-.35,1.36,1.36,0,0,0,.37-1v-.39a1.91,1.91,0,0,1-1.5.63,2,2,0,0,1-1.67-.81A3.51,3.51,0,0,1,177,50.46Zm1.3.11a2.35,2.35,0,0,0,.36,1.38,1.16,1.16,0,0,0,1,.5,1.25,1.25,0,0,0,1.17-.68V49.21a1.24,1.24,0,0,0-1.16-.66,1.15,1.15,0,0,0-1,.51A2.63,2.63,0,0,0,178.31,50.57Z"/><path class="cls-3" d="M184.87,53.4h-1.31V45.15h1.31Z"/><path class="cls-3" d="M186.29,46.08a.69.69,0,0,1,.19-.5.74.74,0,0,1,.55-.2.73.73,0,0,1,.54.2.7.7,0,0,1,.2.5.66.66,0,0,1-.2.49.69.69,0,0,1-.54.2.7.7,0,0,1-.55-.2A.66.66,0,0,1,186.29,46.08Zm1.38,7.32h-1.3V47.59h1.3Z"/><path class="cls-3" d="M190.73,46.18v1.41h1v1h-1V51.8a.73.73,0,0,0,.13.48.62.62,0,0,0,.47.15,2.4,2.4,0,0,0,.46,0v1a3.3,3.3,0,0,1-.86.12c-1,0-1.5-.55-1.5-1.66V48.56h-1v-1h1V46.18Z"/><path class="cls-3" d="M194.39,46.18v1.41h1v1h-1V51.8a.67.67,0,0,0,.13.48.6.6,0,0,0,.47.15,2.49,2.49,0,0,0,.46,0v1a3.36,3.36,0,0,1-.86.12c-1,0-1.51-.55-1.51-1.66V48.56h-1v-1h1V46.18Z"/><path class="cls-3" d="M199,53.51a2.69,2.69,0,0,1-2-.78,2.84,2.84,0,0,1-.77-2.08v-.16a3.57,3.57,0,0,1,.33-1.56,2.57,2.57,0,0,1,.95-1.06,2.42,2.42,0,0,1,1.35-.39,2.32,2.32,0,0,1,1.84.76,3.23,3.23,0,0,1,.64,2.15v.52h-3.8a1.72,1.72,0,0,0,.49,1.14,1.43,1.43,0,0,0,1.06.42,1.77,1.77,0,0,0,1.46-.73l.7.68a2.34,2.34,0,0,1-.93.8A2.83,2.83,0,0,1,199,53.51Zm-.15-5a1.11,1.11,0,0,0-.87.38,1.94,1.94,0,0,0-.42,1.05H200v-.1a1.54,1.54,0,0,0-.35-1A1.05,1.05,0,0,0,198.82,48.53Z"/><path class="cls-3" d="M205.36,48.78a4.73,4.73,0,0,0-.54,0,1.18,1.18,0,0,0-1.2.69v4h-1.31V47.59h1.25l0,.65a1.49,1.49,0,0,1,1.31-.76,1.19,1.19,0,0,1,.46.08Z"/><path class="cls-3" d="M206.18,46.08a.77.77,0,0,1,1.29-.5.69.69,0,0,1,.19.5.66.66,0,0,1-.19.49.86.86,0,0,1-1.1,0A.7.7,0,0,1,206.18,46.08Zm1.39,7.32h-1.31V47.59h1.31Z"/><path class="cls-3" d="M210.2,47.59l0,.67a2.08,2.08,0,0,1,1.69-.78c1.21,0,1.83.7,1.85,2.08V53.4h-1.31V49.64a1.25,1.25,0,0,0-.23-.82,1,1,0,0,0-.79-.27,1.25,1.25,0,0,0-1.17.72V53.4H209V47.59Z"/><path class="cls-3" d="M214.88,50.46a3.38,3.38,0,0,1,.64-2.17,2,2,0,0,1,1.69-.81,1.92,1.92,0,0,1,1.56.7l.06-.59H220v5.64a2.31,2.31,0,0,1-.71,1.8,2.7,2.7,0,0,1-1.92.66,3.26,3.26,0,0,1-1.25-.26,2.23,2.23,0,0,1-.92-.7l.62-.78a1.87,1.87,0,0,0,1.48.71,1.45,1.45,0,0,0,1-.35,1.37,1.37,0,0,0,.38-1v-.39a1.93,1.93,0,0,1-1.5.63,2,2,0,0,1-1.67-.81A3.51,3.51,0,0,1,214.88,50.46Zm1.3.11a2.35,2.35,0,0,0,.36,1.38,1.16,1.16,0,0,0,1,.5,1.25,1.25,0,0,0,1.17-.68V49.21a1.24,1.24,0,0,0-1.16-.66,1.15,1.15,0,0,0-1,.51A2.63,2.63,0,0,0,216.18,50.57Z"/></g></g></svg>