<?xml version="1.0" encoding="utf-8"?>
<!-- Generator: Adobe Illustrator 26.5.0, SVG Export Plug-In . SVG Version: 6.00 Build 0)  -->
<svg version="1.1" id="Layer_1" xmlns="http://www.w3.org/2000/svg" xmlns:xlink="http://www.w3.org/1999/xlink" x="0px" y="0px"
	 viewBox="0 0 125.6 99.2" style="enable-background:new 0 0 125.6 99.2;" xml:space="preserve">
<style type="text/css">
	.st0{fill:#B28146;}
	.st1{fill:none;stroke:#B28146;stroke-width:1.1752;stroke-miterlimit:10;}
</style>
<g>
	<g>
		<path class="st0" d="M10.2,58.8c-2-1.9-2.5-4.3-2.5-6.5c0-1.5,0.4-4.1,2.3-6c1.4-1.4,3.3-2.3,6.3-2.3c1.2,0,2,0.1,2.9,0.2
			c0.8,0.1,1.4,0.3,2,0.4c0.2,0,0.3,0.1,0.3,0.3c0,0.2-0.1,0.4-0.1,1.2c0,0.7,0,1.9-0.1,2.4c0,0.3-0.1,0.5-0.2,0.5
			c-0.2,0-0.2-0.2-0.2-0.5c0-0.7-0.3-1.4-0.8-2c-0.7-0.8-2.2-1.4-4.1-1.4c-1.7,0-2.9,0.5-3.8,1.4c-1.5,1.5-1.8,3.5-1.8,5.7
			c0,5.2,3.6,7.8,6.3,7.8c1.8,0,2.9-0.2,3.7-1.2c0.3-0.4,0.6-1.1,0.7-1.4c0.1-0.4,0.1-0.4,0.3-0.4c0.1,0,0.2,0.2,0.2,0.3
			c0,0.3-0.2,2.2-0.4,2.9c-0.1,0.4-0.2,0.5-0.5,0.6c-0.8,0.4-2.3,0.5-3.6,0.5C14.4,61.2,12.1,60.5,10.2,58.8z"/>
		<path class="st0" d="M32.4,55.1c-0.1,0-0.1,0-0.2,0.2l-1.1,3.1c-0.2,0.5-0.3,1.1-0.3,1.3c0,0.4,0.2,0.7,0.8,0.7h0.3
			c0.2,0,0.3,0,0.3,0.2c0,0.2-0.1,0.2-0.3,0.2c-0.6,0-1.5-0.1-2.1-0.1c-0.2,0-1.3,0.1-2.4,0.1c-0.3,0-0.4,0-0.4-0.2
			c0-0.1,0.1-0.2,0.2-0.2c0.2,0,0.5,0,0.6,0c0.9-0.1,1.3-0.9,1.7-2l5-13.7c0.2-0.6,0.4-0.9,0.6-0.9c0.2,0,0.3,0.2,0.5,0.7
			c0.5,1.2,3.7,10.1,5,13.5c0.8,2,1.3,2.3,1.8,2.4c0.3,0.1,0.6,0.1,0.8,0.1c0.2,0,0.3,0,0.3,0.2c0,0.2-0.2,0.2-0.9,0.2
			c-0.7,0-2.2,0-3.8,0c-0.4,0-0.6,0-0.6-0.2c0-0.1,0.1-0.2,0.3-0.2c0.1,0,0.3-0.2,0.2-0.5l-1.6-4.6c0-0.1-0.1-0.2-0.2-0.2H32.4z
			 M36.5,54c0.1,0,0.1-0.1,0.1-0.1l-1.8-5.4c0-0.1,0-0.2-0.1-0.2c-0.1,0-0.1,0.1-0.1,0.2l-1.8,5.4c0,0.1,0,0.2,0.1,0.2H36.5z"/>
		<path class="st0" d="M50.7,50.7c0-3.3,0-3.9,0-4.6c0-0.7-0.2-1.1-0.9-1.2c-0.2,0-0.5-0.1-0.8-0.1c-0.2,0-0.3,0-0.3-0.2
			c0-0.2,0.1-0.2,0.4-0.2c1.1,0,2.3,0.1,2.7,0.1c0.7,0,2.2-0.1,2.8-0.1c1.3,0,2.6,0.1,3.7,0.9c0.6,0.4,1.4,1.5,1.4,3
			c0,1.6-0.6,3.1-2.6,4.9c1.8,2.5,3.2,4.4,4.4,5.8c1.1,1.3,1.9,1.4,2.2,1.5c0.2,0,0.4,0.1,0.6,0.1s0.2,0.1,0.2,0.2
			c0,0.2-0.1,0.2-0.4,0.2h-1.9c-1.1,0-1.6-0.1-2.1-0.4c-0.9-0.5-1.6-1.5-2.7-3.2c-0.8-1.2-1.7-2.7-2-3c-0.1-0.1-0.2-0.2-0.4-0.2
			l-1.7,0c-0.1,0-0.2,0-0.2,0.2v0.3c0,2,0,3.8,0.1,4.7c0.1,0.6,0.2,1.1,0.8,1.2c0.3,0,0.7,0.1,1,0.1c0.2,0,0.2,0.1,0.2,0.2
			c0,0.2-0.1,0.2-0.4,0.2c-1.2,0-2.6-0.1-2.9-0.1c-0.4,0-1.6,0.1-2.4,0.1c-0.3,0-0.4-0.1-0.4-0.2c0-0.1,0.1-0.2,0.3-0.2
			c0.3,0,0.5,0,0.7-0.1c0.4-0.1,0.5-0.6,0.6-1.2c0.1-0.9,0.1-2.6,0.1-4.7V50.7z M53,52.4c0,0.2,0,0.3,0.2,0.4c0.4,0.2,1,0.2,1.5,0.2
			c0.8,0,1.1-0.1,1.4-0.4c0.6-0.5,1.2-1.5,1.2-3.3c0-3.1-1.9-4-3.1-4c-0.5,0-0.9,0-1.1,0.1c-0.1,0-0.2,0.1-0.2,0.3V52.4z"/>
		<path class="st0" d="M72.7,45.5l-3,0.1c-1.2,0-1.6,0.2-1.9,0.6c-0.2,0.3-0.3,0.6-0.3,0.8c0,0.2-0.1,0.3-0.2,0.3
			c-0.1,0-0.2-0.1-0.2-0.4c0-0.4,0.4-2.3,0.4-2.5c0.1-0.3,0.1-0.4,0.2-0.4c0.2,0,0.4,0.2,0.9,0.3c0.6,0.1,1.3,0.1,2,0.1h7.9
			c0.6,0,1.1-0.1,1.4-0.1c0.3-0.1,0.5-0.1,0.5-0.1c0.1,0,0.2,0.1,0.2,0.5c0,0.5-0.1,2-0.1,2.5c0,0.2-0.1,0.4-0.2,0.4
			c-0.2,0-0.2-0.1-0.2-0.4l0-0.2c0-0.6-0.6-1.2-2.4-1.2l-2.5-0.1v9c0,2,0,3.7,0.1,4.7c0.1,0.6,0.2,1.1,0.8,1.2c0.3,0,0.7,0.1,1,0.1
			c0.2,0,0.3,0.1,0.3,0.2c0,0.2-0.2,0.2-0.4,0.2c-1.3,0-2.6-0.1-3.1-0.1c-0.5,0-1.7,0.1-2.5,0.1c-0.3,0-0.4-0.1-0.4-0.2
			c0-0.1,0.1-0.2,0.3-0.2c0.3,0,0.5,0,0.7-0.1c0.4-0.1,0.5-0.6,0.6-1.2c0.1-0.9,0.1-2.6,0.1-4.7V45.5z"/>
		<path class="st0" d="M89.3,50.7c0-3.3,0-3.9,0-4.6c0-0.7-0.2-1.1-0.9-1.2c-0.2,0-0.5-0.1-0.8-0.1c-0.2,0-0.3,0-0.3-0.2
			c0-0.2,0.1-0.2,0.4-0.2c0.5,0,1.1,0,1.6,0c0.5,0,1,0,1.3,0c0.6,0,4.6,0,5,0c0.4,0,0.7-0.1,0.9-0.1c0.1,0,0.2-0.1,0.3-0.1
			c0.1,0,0.1,0.1,0.1,0.2c0,0.2-0.1,0.4-0.2,1.4c0,0.2-0.1,1.2-0.1,1.4c0,0.1-0.1,0.2-0.2,0.2c-0.1,0-0.2-0.1-0.2-0.3
			c0-0.2,0-0.5-0.1-0.8c-0.1-0.4-0.3-0.7-1.3-0.8c-0.3,0-2.4-0.1-2.8-0.1c-0.1,0-0.1,0.1-0.1,0.2v5.5c0,0.2,0,0.2,0.1,0.2
			c0.4,0,2.7,0,3.2,0c0.5,0,0.8-0.1,1-0.3c0.1-0.2,0.2-0.3,0.3-0.3c0.1,0,0.1,0,0.1,0.2c0,0.1-0.1,0.5-0.2,1.6
			c0,0.4-0.1,1.3-0.1,1.5c0,0.2,0,0.4-0.2,0.4c-0.1,0-0.2-0.1-0.2-0.2c0-0.2,0-0.5-0.1-0.8c-0.1-0.4-0.4-0.8-1.1-0.9
			c-0.4,0-2.4-0.1-2.8-0.1c-0.1,0-0.1,0.1-0.1,0.2v1.7c0,0.7,0,2.8,0,3.4c0,1.5,0.4,1.8,2.4,1.8c0.5,0,1.4,0,1.9-0.3
			c0.5-0.3,0.8-0.7,0.9-1.6c0-0.2,0.1-0.3,0.2-0.3c0.2,0,0.2,0.2,0.2,0.4c0,0.5-0.2,2-0.3,2.4c-0.1,0.6-0.3,0.6-1.1,0.6
			c-1.5,0-2.6,0-3.5-0.1c-0.9,0-1.5-0.1-2.1-0.1c-0.2,0-0.7,0-1.1,0c-0.5,0-1,0-1.4,0c-0.3,0-0.4-0.1-0.4-0.2c0-0.1,0.1-0.2,0.3-0.2
			c0.3,0,0.5,0,0.7-0.1c0.4-0.1,0.5-0.6,0.6-1.2c0.1-0.9,0.1-2.6,0.1-4.7V50.7z"/>
		<path class="st0" d="M107,50.7c0-3.3,0-3.9,0-4.6c0-0.7-0.2-1.1-0.9-1.2c-0.2,0-0.5-0.1-0.8-0.1c-0.2,0-0.3,0-0.3-0.2
			c0-0.2,0.1-0.2,0.4-0.2c1.1,0,2.3,0.1,2.7,0.1c0.7,0,2.2-0.1,2.8-0.1c1.3,0,2.6,0.1,3.7,0.9c0.6,0.4,1.4,1.5,1.4,3
			c0,1.6-0.6,3.1-2.6,4.9c1.8,2.5,3.2,4.4,4.4,5.8c1.1,1.3,1.9,1.4,2.2,1.5c0.2,0,0.4,0.1,0.6,0.1s0.2,0.1,0.2,0.2
			c0,0.2-0.1,0.2-0.4,0.2h-1.9c-1.1,0-1.6-0.1-2.1-0.4c-0.9-0.5-1.6-1.5-2.7-3.2c-0.8-1.2-1.7-2.7-2-3c-0.1-0.1-0.2-0.2-0.4-0.2
			l-1.7,0c-0.1,0-0.2,0-0.2,0.2v0.3c0,2,0,3.8,0.1,4.7c0.1,0.6,0.2,1.1,0.8,1.2c0.3,0,0.7,0.1,1,0.1c0.2,0,0.2,0.1,0.2,0.2
			c0,0.2-0.1,0.2-0.4,0.2c-1.2,0-2.6-0.1-2.9-0.1c-0.4,0-1.6,0.1-2.4,0.1c-0.3,0-0.4-0.1-0.4-0.2c0-0.1,0.1-0.2,0.3-0.2
			c0.3,0,0.5,0,0.7-0.1c0.4-0.1,0.5-0.6,0.6-1.2c0.1-0.9,0.1-2.6,0.1-4.7V50.7z M109.4,52.4c0,0.2,0,0.3,0.2,0.4
			c0.4,0.2,1,0.2,1.5,0.2c0.8,0,1.1-0.1,1.4-0.4c0.6-0.5,1.2-1.5,1.2-3.3c0-3.1-1.9-4-3.1-4c-0.5,0-0.9,0-1.1,0.1
			c-0.1,0-0.2,0.1-0.2,0.3V52.4z"/>
		<path class="st0" d="M4.4,80.9c0,2.8,0,4.3,0.4,4.7c0.3,0.3,0.9,0.5,2.4,0.5c1.1,0,1.8,0,2.3-0.6c0.2-0.3,0.5-0.9,0.5-1.3
			c0-0.2,0.1-0.3,0.2-0.3c0.1,0,0.2,0.1,0.2,0.4c0,0.2-0.1,1.9-0.3,2.5c-0.1,0.5-0.2,0.6-1.3,0.6c-1.4,0-2.5,0-3.4-0.1
			c-0.9,0-1.6-0.1-2.4-0.1c-0.2,0-0.7,0-1.1,0c-0.5,0-1,0-1.4,0c-0.3,0-0.4-0.1-0.4-0.2c0-0.1,0.1-0.2,0.3-0.2c0.3,0,0.5,0,0.7-0.1
			c0.4-0.1,0.5-0.6,0.6-1.2c0.1-0.9,0.1-2.6,0.1-4.7V77c0-3.3,0-3.9,0-4.6c0-0.7-0.2-1.1-0.9-1.2c-0.2,0-0.4-0.1-0.7-0.1
			c-0.2,0-0.3,0-0.3-0.2s0.1-0.2,0.4-0.2c0.9,0,2.2,0.1,2.7,0.1c0.5,0,1.9-0.1,2.7-0.1c0.3,0,0.4,0,0.4,0.2S6.2,71.1,6,71.1
			c-0.2,0-0.5,0-0.8,0.1c-0.5,0.1-0.7,0.5-0.7,1.2c0,0.7,0,1.3,0,4.6V80.9z"/>
		<path class="st0" d="M20.3,81.5c-0.1,0-0.1,0-0.2,0.2L19,84.8c-0.2,0.5-0.3,1.1-0.3,1.3c0,0.4,0.2,0.7,0.8,0.7h0.3
			c0.2,0,0.3,0,0.3,0.2c0,0.2-0.1,0.2-0.3,0.2c-0.6,0-1.5-0.1-2.1-0.1c-0.2,0-1.3,0.1-2.4,0.1c-0.3,0-0.4,0-0.4-0.2
			c0-0.1,0.1-0.2,0.2-0.2c0.2,0,0.5,0,0.6,0c0.9-0.1,1.3-0.9,1.7-2l5-13.7c0.2-0.6,0.4-0.9,0.6-0.9c0.2,0,0.3,0.2,0.5,0.7
			c0.5,1.2,3.7,10.1,5,13.5c0.8,2,1.3,2.3,1.8,2.4c0.3,0.1,0.6,0.1,0.8,0.1c0.2,0,0.3,0,0.3,0.2c0,0.2-0.2,0.2-0.9,0.2
			c-0.7,0-2.2,0-3.8,0c-0.4,0-0.6,0-0.6-0.2c0-0.1,0.1-0.2,0.3-0.2c0.1,0,0.3-0.2,0.2-0.5l-1.6-4.6c0-0.1-0.1-0.2-0.2-0.2H20.3z
			 M24.3,80.4c0.1,0,0.1-0.1,0.1-0.1l-1.8-5.4c0-0.1,0-0.2-0.1-0.2c-0.1,0-0.1,0.1-0.1,0.2l-1.8,5.4c0,0.1,0,0.2,0.1,0.2H24.3z"/>
		<path class="st0" d="M35.5,72.8c-0.5-1.2-0.8-1.4-1.5-1.7c-0.3-0.1-0.6-0.1-0.8-0.1c-0.2,0-0.2-0.1-0.2-0.2c0-0.2,0.2-0.2,0.5-0.2
			c1.1,0,2.2,0.1,2.9,0.1c0.5,0,1.5-0.1,2.5-0.1c0.2,0,0.5,0,0.5,0.2s-0.1,0.2-0.3,0.2c-0.3,0-0.6,0-0.8,0.2
			C38,71.4,38,71.5,38,71.7c0,0.3,0.2,0.9,0.5,1.7l3.4,9.9H42c0.9-2.4,3.5-9.5,4-10.9c0.1-0.3,0.2-0.6,0.2-0.8
			c0-0.2-0.1-0.4-0.3-0.4c-0.2-0.1-0.5-0.1-0.8-0.1c-0.2,0-0.3,0-0.3-0.2c0-0.2,0.2-0.2,0.6-0.2c1,0,1.8,0.1,2.1,0.1
			c0.3,0,1.3-0.1,1.9-0.1c0.3,0,0.4,0,0.4,0.2s-0.1,0.2-0.3,0.2s-0.6,0-1,0.3c-0.3,0.2-0.6,0.6-1.1,2c-0.8,2.1-1.3,3.2-2.4,5.9
			c-1.3,3.2-2.2,5.6-2.7,6.7c-0.5,1.3-0.6,1.6-0.9,1.6c-0.3,0-0.4-0.3-0.8-1.3L35.5,72.8z"/>
		<path class="st0" d="M56.8,77c0-3.3,0-3.9,0-4.6c0-0.7-0.2-1.1-0.7-1.2c-0.2-0.1-0.5-0.1-0.7-0.1c-0.2,0-0.3,0-0.3-0.2
			c0-0.1,0.2-0.2,0.5-0.2c0.8,0,2,0.1,2.6,0.1c0.5,0,1.7-0.1,2.4-0.1c0.3,0,0.4,0,0.4,0.2c0,0.2-0.1,0.2-0.3,0.2
			c-0.2,0-0.4,0-0.6,0.1c-0.5,0.1-0.7,0.5-0.7,1.2c0,0.7,0,1.3,0,4.6v3.9c0,2.1,0,3.9,0.1,4.8c0.1,0.6,0.2,1,0.8,1.1
			c0.3,0,0.7,0.1,1,0.1c0.2,0,0.3,0.1,0.3,0.2c0,0.2-0.2,0.2-0.4,0.2c-1.3,0-2.6-0.1-3.1-0.1c-0.5,0-1.7,0.1-2.5,0.1
			c-0.3,0-0.4-0.1-0.4-0.2c0-0.1,0.1-0.2,0.3-0.2c0.3,0,0.5,0,0.7-0.1c0.4-0.1,0.5-0.5,0.6-1.1c0.1-0.9,0.1-2.6,0.1-4.8V77z"/>
		<path class="st0" d="M82.9,85.8c0,0.6,0,0.6-0.3,0.8c-1.3,0.7-3.3,1-4.8,1c-4.9,0-9.3-2.5-9.3-8.6c0-3.5,1.7-6,3.5-7.2
			c1.9-1.3,3.7-1.4,5.4-1.4c1.4,0,3.1,0.3,3.5,0.4c0.4,0.1,1.1,0.2,1.6,0.2c0.2,0,0.3,0.1,0.3,0.3c0,0.2-0.1,0.9-0.1,3.6
			c0,0.4-0.1,0.5-0.2,0.5c-0.1,0-0.2-0.1-0.2-0.3c-0.1-0.5-0.2-1.2-0.7-1.8c-0.6-0.7-2.2-1.7-4.5-1.7c-1.1,0-2.6,0.1-4,1.4
			c-1.1,1-1.8,2.7-1.8,5.4c0,4.7,2.7,8.2,7,8.2c0.5,0,1.2,0,1.7-0.2c0.3-0.2,0.4-0.4,0.4-0.8v-2.1c0-1.1,0-1.9,0-2.6
			c0-0.7-0.2-1.1-0.9-1.2c-0.2,0-0.5-0.1-0.8-0.1c-0.2,0-0.3,0-0.3-0.2c0-0.2,0.1-0.2,0.4-0.2c1,0,2.3,0.1,2.9,0.1
			c0.6,0,1.7-0.1,2.3-0.1c0.3,0,0.4,0,0.4,0.2c0,0.1-0.1,0.2-0.3,0.2c-0.2,0-0.3,0-0.5,0.1c-0.5,0.1-0.7,0.5-0.8,1.2
			c0,0.7,0,1.5,0,2.6V85.8z"/>
		<path class="st0" d="M94.6,84.3c0,1.7,0.3,2.3,0.7,2.4c0.3,0.1,0.7,0.2,1,0.2c0.2,0,0.3,0,0.3,0.2c0,0.2-0.2,0.2-0.5,0.2
			c-1.3,0-2.1-0.1-2.5-0.1c-0.2,0-1.1,0.1-2.2,0.1c-0.3,0-0.4,0-0.4-0.2c0-0.1,0.1-0.2,0.3-0.2c0.3,0,0.6,0,0.9-0.1
			c0.5-0.2,0.6-0.8,0.6-2.7l0.2-13c0-0.4,0.1-0.7,0.3-0.7c0.2,0,0.4,0.3,0.7,0.7c0.2,0.3,3.3,3.9,6.2,7c1.4,1.5,4.1,4.6,4.4,5h0.1
			l-0.2-9.8c0-1.3-0.2-1.8-0.7-2c-0.3-0.1-0.8-0.1-1.1-0.1c-0.2,0-0.3-0.1-0.3-0.2c0-0.2,0.2-0.2,0.5-0.2c1,0,2,0.1,2.4,0.1
			c0.2,0,1-0.1,2-0.1c0.3,0,0.5,0,0.5,0.2c0,0.1-0.1,0.2-0.4,0.2c-0.2,0-0.4,0-0.6,0.1c-0.6,0.2-0.7,0.6-0.7,1.9l-0.2,13.8
			c0,0.5-0.1,0.7-0.3,0.7c-0.2,0-0.5-0.2-0.7-0.5c-1.3-1.3-3.8-4.2-5.9-6.4c-2.2-2.4-4.4-5.1-4.8-5.5h-0.1L94.6,84.3z"/>
		<path class="st0" d="M117.5,77c0-3.3,0-3.9,0-4.6c0-0.7-0.2-1.1-0.9-1.2c-0.2,0-0.5-0.1-0.8-0.1c-0.2,0-0.3,0-0.3-0.2
			s0.1-0.2,0.4-0.2c0.5,0,1.1,0,1.6,0c0.5,0,1,0,1.3,0c0.6,0,4.6,0,5,0c0.4,0,0.7-0.1,0.9-0.1c0.1,0,0.2-0.1,0.3-0.1
			c0.1,0,0.1,0.1,0.1,0.2c0,0.2-0.1,0.4-0.2,1.4c0,0.2-0.1,1.2-0.1,1.4c0,0.1-0.1,0.2-0.2,0.2c-0.1,0-0.2-0.1-0.2-0.3
			c0-0.2,0-0.5-0.1-0.8c-0.1-0.4-0.3-0.7-1.3-0.8c-0.3,0-2.4-0.1-2.8-0.1c-0.1,0-0.1,0.1-0.1,0.2v5.5c0,0.2,0,0.2,0.1,0.2
			c0.4,0,2.7,0,3.2,0c0.5,0,0.8-0.1,1-0.3c0.1-0.2,0.2-0.3,0.3-0.3c0.1,0,0.1,0,0.1,0.2c0,0.1-0.1,0.5-0.2,1.6
			c0,0.4-0.1,1.3-0.1,1.5c0,0.2,0,0.4-0.2,0.4c-0.1,0-0.2-0.1-0.2-0.2c0-0.2,0-0.5-0.1-0.8c-0.1-0.4-0.4-0.8-1.1-0.9
			c-0.4,0-2.4-0.1-2.8-0.1c-0.1,0-0.1,0.1-0.1,0.2v1.7c0,0.7,0,2.8,0,3.4c0,1.5,0.4,1.8,2.4,1.8c0.5,0,1.4,0,1.9-0.3
			c0.5-0.3,0.8-0.7,0.9-1.6c0-0.2,0.1-0.3,0.2-0.3c0.2,0,0.2,0.2,0.2,0.4c0,0.5-0.2,2-0.3,2.4c-0.1,0.6-0.3,0.6-1.1,0.6
			c-1.5,0-2.6,0-3.5-0.1c-0.9,0-1.5-0.1-2.1-0.1c-0.2,0-0.7,0-1.1,0c-0.5,0-1,0-1.4,0c-0.3,0-0.4-0.1-0.4-0.2c0-0.1,0.1-0.2,0.3-0.2
			c0.3,0,0.5,0,0.7-0.1c0.4-0.1,0.5-0.6,0.6-1.2c0.1-0.9,0.1-2.6,0.1-4.7V77z"/>
	</g>
	<g>
		<path class="st1" d="M80.1,19.4c0,10.4-8.4,18.8-18.8,18.8c-10.4,0-18.8-8.4-18.8-18.8S51,0.6,61.4,0.6C71.7,0.6,80.1,9,80.1,19.4
			z"/>
		<path class="st1" d="M69.8,19c0,4.7-3.8,8.4-8.4,8.4c-4.7,0-8.4-3.8-8.4-8.4c0-4.7,3.8-8.4,8.4-8.4C66,10.6,69.8,14.4,69.8,19z"/>
		<line class="st1" x1="53" y1="19" x2="53" y2="36.1"/>
		<line class="st1" x1="69.8" y1="2.2" x2="69.8" y2="19.4"/>
		<line class="st1" x1="48.3" y1="32.8" x2="48.1" y2="19"/>
		<path class="st1" d="M48.1,19c0-7.2,5.6-13.1,12.5-13.1"/>
		<line class="st1" x1="74.7" y1="6" x2="74.9" y2="19.7"/>
		<path class="st1" d="M74.9,19.7c0,7.2-5.6,13.1-12.5,13.1"/>
	</g>
	<g>
		<g>
			<path class="st0" d="M9.1,95.3c0-1.2,0-1.5,0-1.7c0-0.3-0.1-0.4-0.3-0.5c-0.1,0-0.2,0-0.3,0c-0.1,0-0.1,0-0.1-0.1
				c0,0,0.1-0.1,0.2-0.1c0.3,0,0.7,0,1,0c0.2,0,0.6,0,0.9,0c0.1,0,0.2,0,0.2,0.1c0,0.1,0,0.1-0.1,0.1c-0.1,0-0.1,0-0.2,0
				c-0.2,0-0.3,0.2-0.3,0.5c0,0.3,0,0.5,0,1.7v1.4c0,0.8,0,1.4,0,1.8c0,0.2,0.1,0.4,0.3,0.4c0.1,0,0.3,0,0.4,0c0.1,0,0.1,0,0.1,0.1
				c0,0.1-0.1,0.1-0.1,0.1c-0.5,0-1,0-1.2,0c-0.2,0-0.6,0-0.9,0c-0.1,0-0.1,0-0.1-0.1c0,0,0-0.1,0.1-0.1c0.1,0,0.2,0,0.3,0
				C9,98.8,9,98.7,9,98.5c0-0.3,0-1,0-1.8V95.3z"/>
			<path class="st0" d="M14.7,97.9c0,0.6,0.1,0.8,0.3,0.9c0.1,0,0.3,0.1,0.4,0.1c0.1,0,0.1,0,0.1,0.1c0,0.1-0.1,0.1-0.2,0.1
				c-0.5,0-0.8,0-0.9,0c-0.1,0-0.4,0-0.8,0c-0.1,0-0.2,0-0.2-0.1c0,0,0-0.1,0.1-0.1c0.1,0,0.2,0,0.3,0c0.2-0.1,0.2-0.3,0.2-1
				l0.1-4.8c0-0.2,0-0.3,0.1-0.3c0.1,0,0.1,0.1,0.3,0.2c0.1,0.1,1.2,1.4,2.3,2.6c0.5,0.5,1.5,1.7,1.6,1.8h0l-0.1-3.6
				c0-0.5-0.1-0.6-0.3-0.7c-0.1,0-0.3,0-0.4,0c-0.1,0-0.1,0-0.1-0.1c0-0.1,0.1-0.1,0.2-0.1c0.4,0,0.7,0,0.9,0c0.1,0,0.4,0,0.7,0
				c0.1,0,0.2,0,0.2,0.1c0,0,0,0.1-0.1,0.1c-0.1,0-0.1,0-0.2,0C19,93.2,19,93.3,19,93.8l-0.1,5.1c0,0.2,0,0.2-0.1,0.2
				c-0.1,0-0.2-0.1-0.3-0.2c-0.5-0.5-1.4-1.5-2.2-2.4c-0.8-0.9-1.6-1.9-1.8-2h0L14.7,97.9z"/>
			<path class="st0" d="M22.7,98.9c-0.1-0.1-0.1-0.1-0.1-0.3c0-0.4,0-0.9,0-1.1c0-0.1,0-0.2,0.1-0.2c0.1,0,0.1,0.1,0.1,0.1
				c0,0.1,0,0.3,0.1,0.4c0.2,0.6,0.6,0.8,1.1,0.8c0.7,0,1-0.5,1-0.9c0-0.4-0.1-0.8-0.7-1.3l-0.3-0.3c-0.8-0.7-1.1-1.3-1.1-1.9
				c0-0.9,0.7-1.5,1.7-1.5c0.5,0,0.8,0.1,1,0.1c0.1,0,0.1,0,0.1,0.1c0,0.1,0,0.3,0,1c0,0.2,0,0.2-0.1,0.2c-0.1,0-0.1,0-0.1-0.1
				c0-0.1,0-0.3-0.2-0.5c-0.1-0.2-0.3-0.4-0.8-0.4c-0.5,0-0.9,0.3-0.9,0.8c0,0.4,0.2,0.7,0.8,1.2l0.2,0.2c0.9,0.7,1.2,1.3,1.2,2.1
				c0,0.5-0.2,1-0.7,1.4c-0.4,0.3-0.8,0.3-1.2,0.3C23.3,99.2,23,99.1,22.7,98.9z"/>
			<path class="st0" d="M29.2,95.3c0-1.2,0-1.5,0-1.7c0-0.3-0.1-0.4-0.3-0.5c-0.1,0-0.2,0-0.3,0c-0.1,0-0.1,0-0.1-0.1
				c0-0.1,0.1-0.1,0.2-0.1c0.4,0,0.9,0,1.1,0c0.3,0,0.7,0,1.1,0c0.9,0,1.3,0.3,1.4,0.5c0.2,0.2,0.4,0.5,0.4,1c0,1.1-0.8,2-1.8,2
				c0,0-0.1,0-0.2,0c0,0-0.1,0-0.1-0.1c0-0.1,0.1-0.1,0.2-0.1c0.4,0,1-0.5,1-1.3c0-0.3,0-0.8-0.4-1.2c-0.3-0.3-0.6-0.3-0.7-0.3
				c-0.1,0-0.2,0-0.3,0c0,0-0.1,0.1-0.1,0.2v3.2c0,0.7,0,1.4,0,1.7c0,0.2,0.1,0.4,0.3,0.4c0.1,0,0.3,0,0.4,0c0.1,0,0.1,0,0.1,0.1
				c0,0.1-0.1,0.1-0.1,0.1c-0.5,0-1,0-1.1,0c-0.2,0-0.6,0-0.9,0c-0.1,0-0.1,0-0.1-0.1c0,0,0-0.1,0.1-0.1c0.1,0,0.2,0,0.3,0
				c0.1,0,0.2-0.2,0.2-0.4c0-0.3,0-1,0-1.7V95.3z"/>
			<path class="st0" d="M35.9,95.3c0-1.2,0-1.5,0-1.7c0-0.3-0.1-0.4-0.3-0.5c-0.1,0-0.2,0-0.3,0c-0.1,0-0.1,0-0.1-0.1
				c0,0,0.1-0.1,0.2-0.1c0.3,0,0.7,0,1,0c0.2,0,0.6,0,0.9,0c0.1,0,0.2,0,0.2,0.1c0,0.1,0,0.1-0.1,0.1c-0.1,0-0.1,0-0.2,0
				c-0.2,0-0.3,0.2-0.3,0.5c0,0.3,0,0.5,0,1.7v1.4c0,0.8,0,1.4,0,1.8c0,0.2,0.1,0.4,0.3,0.4c0.1,0,0.3,0,0.4,0c0.1,0,0.1,0,0.1,0.1
				c0,0.1-0.1,0.1-0.1,0.1c-0.5,0-1,0-1.2,0c-0.2,0-0.6,0-0.9,0c-0.1,0-0.1,0-0.1-0.1c0,0,0-0.1,0.1-0.1c0.1,0,0.2,0,0.3,0
				c0.1,0,0.2-0.2,0.2-0.4c0-0.3,0-1,0-1.8V95.3z"/>
			<path class="st0" d="M41.1,95.3c0-1.2,0-1.5,0-1.7c0-0.3-0.1-0.4-0.3-0.5c-0.1,0-0.2,0-0.3,0c-0.1,0-0.1,0-0.1-0.1
				c0-0.1,0.1-0.1,0.2-0.1c0.4,0,0.9,0,1,0c0.3,0,0.8,0,1,0c0.5,0,1,0,1.4,0.3c0.2,0.2,0.5,0.6,0.5,1.1c0,0.6-0.2,1.1-1,1.8
				c0.7,0.9,1.2,1.6,1.6,2.1c0.4,0.5,0.7,0.5,0.8,0.5c0.1,0,0.1,0,0.2,0c0.1,0,0.1,0,0.1,0.1c0,0.1-0.1,0.1-0.1,0.1h-0.7
				c-0.4,0-0.6,0-0.8-0.2c-0.3-0.2-0.6-0.6-1-1.2c-0.3-0.4-0.6-1-0.7-1.1c0,0-0.1-0.1-0.1-0.1l-0.6,0c0,0-0.1,0-0.1,0.1v0.1
				c0,0.7,0,1.4,0,1.7c0,0.2,0.1,0.4,0.3,0.4c0.1,0,0.3,0,0.4,0c0.1,0,0.1,0,0.1,0.1c0,0.1-0.1,0.1-0.1,0.1c-0.4,0-1,0-1.1,0
				c-0.1,0-0.6,0-0.9,0c-0.1,0-0.1,0-0.1-0.1c0,0,0-0.1,0.1-0.1c0.1,0,0.2,0,0.3,0c0.1,0,0.2-0.2,0.2-0.4c0-0.3,0-1,0-1.7V95.3z
				 M42,95.9c0,0.1,0,0.1,0.1,0.1c0.2,0.1,0.4,0.1,0.6,0.1c0.3,0,0.4,0,0.5-0.1c0.2-0.2,0.4-0.5,0.4-1.2c0-1.1-0.7-1.5-1.1-1.5
				c-0.2,0-0.3,0-0.4,0c-0.1,0-0.1,0-0.1,0.1V95.9z"/>
			<path class="st0" d="M48.5,95.3c0-1.2,0-1.5,0-1.7c0-0.3-0.1-0.4-0.3-0.5c-0.1,0-0.2,0-0.3,0c-0.1,0-0.1,0-0.1-0.1
				c0-0.1,0.1-0.1,0.2-0.1c0.2,0,0.4,0,0.6,0c0.2,0,0.4,0,0.5,0c0.2,0,1.7,0,1.8,0c0.1,0,0.3,0,0.3,0c0,0,0.1,0,0.1,0c0,0,0,0,0,0.1
				c0,0.1,0,0.2-0.1,0.5c0,0.1,0,0.4,0,0.5c0,0,0,0.1-0.1,0.1c-0.1,0-0.1,0-0.1-0.1c0-0.1,0-0.2,0-0.3c-0.1-0.1-0.1-0.2-0.5-0.3
				c-0.1,0-0.9,0-1,0c0,0-0.1,0-0.1,0.1v2c0,0.1,0,0.1,0.1,0.1c0.2,0,1,0,1.2,0c0.2,0,0.3,0,0.4-0.1c0.1-0.1,0.1-0.1,0.1-0.1
				c0,0,0.1,0,0.1,0.1c0,0,0,0.2-0.1,0.6c0,0.2,0,0.5,0,0.5c0,0.1,0,0.2-0.1,0.2c-0.1,0-0.1,0-0.1-0.1c0-0.1,0-0.2,0-0.3
				c0-0.2-0.1-0.3-0.4-0.3c-0.1,0-0.9,0-1,0c0,0,0,0,0,0.1v0.6c0,0.3,0,1,0,1.2c0,0.6,0.1,0.7,0.9,0.7c0.2,0,0.5,0,0.7-0.1
				c0.2-0.1,0.3-0.3,0.3-0.6c0-0.1,0-0.1,0.1-0.1c0.1,0,0.1,0.1,0.1,0.1c0,0.2-0.1,0.7-0.1,0.9c-0.1,0.2-0.1,0.2-0.4,0.2
				c-0.6,0-1,0-1.3,0c-0.3,0-0.5,0-0.8,0c-0.1,0-0.2,0-0.4,0c-0.2,0-0.4,0-0.5,0c-0.1,0-0.1,0-0.1-0.1c0,0,0-0.1,0.1-0.1
				c0.1,0,0.2,0,0.3,0c0.1,0,0.2-0.2,0.2-0.4c0-0.3,0-1,0-1.7V95.3z"/>
			<path class="st0" d="M55.1,95.3c0-1.2,0-1.5,0-1.7c0-0.3-0.1-0.4-0.3-0.5c-0.1,0-0.2,0-0.3,0c-0.1,0-0.1,0-0.1-0.1
				c0-0.1,0.1-0.1,0.2-0.1c0.4,0,0.9,0,1.1,0c0.2,0,0.7,0,1.1,0c0.9,0,2.2,0,3,0.9c0.4,0.4,0.7,1.1,0.7,2c0,1-0.4,1.8-0.8,2.2
				c-0.3,0.4-1.1,1-2.5,1c-0.3,0-0.6,0-0.8,0c-0.3,0-0.5,0-0.7,0c-0.1,0-0.2,0-0.4,0c-0.2,0-0.4,0-0.5,0c-0.1,0-0.1,0-0.1-0.1
				c0,0,0-0.1,0.1-0.1c0.1,0,0.2,0,0.3,0c0.1,0,0.2-0.2,0.2-0.4c0-0.3,0-1,0-1.7V95.3z M56,96.2c0,0.9,0,1.5,0,1.6
				c0,0.2,0,0.5,0.1,0.6c0.1,0.2,0.4,0.3,1,0.3c0.8,0,1.3-0.2,1.7-0.6c0.5-0.4,0.6-1.2,0.6-2c0-1-0.4-1.7-0.7-2
				c-0.7-0.7-1.5-0.8-2.1-0.8c-0.1,0-0.4,0-0.5,0.1c-0.1,0-0.1,0.1-0.1,0.2c0,0.3,0,1,0,1.6V96.2z"/>
			<path class="st0" d="M67.9,95.3c0-1.2,0-1.5,0-1.7c0-0.3-0.1-0.4-0.3-0.5c-0.1,0-0.2,0-0.3,0c-0.1,0-0.1,0-0.1-0.1
				c0-0.1,0.1-0.1,0.2-0.1c0.4,0,0.9,0,1.1,0c0.3,0,0.7,0,1.1,0c0.9,0,1.3,0.3,1.4,0.5c0.2,0.2,0.4,0.5,0.4,1c0,1.1-0.8,2-1.8,2
				c0,0-0.1,0-0.2,0c0,0-0.1,0-0.1-0.1c0-0.1,0.1-0.1,0.2-0.1c0.4,0,1-0.5,1-1.3c0-0.3,0-0.8-0.4-1.2c-0.3-0.3-0.6-0.3-0.7-0.3
				c-0.1,0-0.2,0-0.3,0c0,0-0.1,0.1-0.1,0.2v3.2c0,0.7,0,1.4,0,1.7c0,0.2,0.1,0.4,0.3,0.4c0.1,0,0.3,0,0.4,0c0.1,0,0.1,0,0.1,0.1
				c0,0.1-0.1,0.1-0.1,0.1c-0.5,0-1,0-1.1,0c-0.2,0-0.6,0-0.9,0c-0.1,0-0.1,0-0.1-0.1c0,0,0-0.1,0.1-0.1c0.1,0,0.2,0,0.3,0
				c0.1,0,0.2-0.2,0.2-0.4c0-0.3,0-1,0-1.7V95.3z"/>
			<path class="st0" d="M74.6,95.3c0-1.2,0-1.5,0-1.7c0-0.3-0.1-0.4-0.3-0.5c-0.1,0-0.2,0-0.3,0c-0.1,0-0.1,0-0.1-0.1
				c0-0.1,0.1-0.1,0.2-0.1c0.4,0,0.9,0,1,0c0.3,0,0.8,0,1,0c0.5,0,1,0,1.4,0.3c0.2,0.2,0.5,0.6,0.5,1.1c0,0.6-0.2,1.1-1,1.8
				c0.7,0.9,1.2,1.6,1.6,2.1c0.4,0.5,0.7,0.5,0.8,0.5c0.1,0,0.1,0,0.2,0s0.1,0,0.1,0.1c0,0.1-0.1,0.1-0.1,0.1h-0.7
				c-0.4,0-0.6,0-0.8-0.2c-0.3-0.2-0.6-0.6-1-1.2c-0.3-0.4-0.6-1-0.7-1.1c0,0-0.1-0.1-0.1-0.1l-0.6,0c0,0-0.1,0-0.1,0.1v0.1
				c0,0.7,0,1.4,0,1.7c0,0.2,0.1,0.4,0.3,0.4c0.1,0,0.3,0,0.4,0c0.1,0,0.1,0,0.1,0.1c0,0.1-0.1,0.1-0.1,0.1c-0.4,0-1,0-1.1,0
				c-0.1,0-0.6,0-0.9,0c-0.1,0-0.1,0-0.1-0.1c0,0,0-0.1,0.1-0.1c0.1,0,0.2,0,0.3,0c0.1,0,0.2-0.2,0.2-0.4c0-0.3,0-1,0-1.7V95.3z
				 M75.4,95.9c0,0.1,0,0.1,0.1,0.1c0.2,0.1,0.4,0.1,0.6,0.1c0.3,0,0.4,0,0.5-0.1c0.2-0.2,0.4-0.5,0.4-1.2c0-1.1-0.7-1.5-1.1-1.5
				c-0.2,0-0.3,0-0.4,0c-0.1,0-0.1,0-0.1,0.1V95.9z"/>
			<path class="st0" d="M81.2,96c0-1.4,0.8-3.2,3.1-3.2c1.8,0,3,1.2,3,3c0,1.8-1.2,3.3-3.1,3.3C82,99.2,81.2,97.4,81.2,96z
				 M86.2,96.1c0-1.8-1-2.9-2.2-2.9c-0.8,0-1.8,0.5-1.8,2.5c0,1.7,0.8,3,2.3,3C85,98.7,86.2,98.5,86.2,96.1z"/>
			<path class="st0" d="M90.6,95.3c0-1.2,0-1.5,0-1.7c0-0.3-0.1-0.4-0.3-0.5c-0.1,0-0.2,0-0.3,0c-0.1,0-0.1,0-0.1-0.1
				c0-0.1,0.1-0.1,0.2-0.1c0.4,0,0.9,0,1.1,0c0.2,0,0.7,0,1.1,0c0.9,0,2.2,0,3,0.9c0.4,0.4,0.7,1.1,0.7,2c0,1-0.4,1.8-0.8,2.2
				c-0.3,0.4-1.1,1-2.5,1c-0.3,0-0.6,0-0.8,0c-0.3,0-0.5,0-0.7,0c-0.1,0-0.2,0-0.4,0c-0.2,0-0.4,0-0.5,0c-0.1,0-0.1,0-0.1-0.1
				c0,0,0-0.1,0.1-0.1c0.1,0,0.2,0,0.3,0c0.1,0,0.2-0.2,0.2-0.4c0-0.3,0-1,0-1.7V95.3z M91.5,96.2c0,0.9,0,1.5,0,1.6
				c0,0.2,0,0.5,0.1,0.6c0.1,0.2,0.4,0.3,1,0.3c0.8,0,1.3-0.2,1.7-0.6c0.5-0.4,0.6-1.2,0.6-2c0-1-0.4-1.7-0.7-2
				c-0.7-0.7-1.5-0.8-2.1-0.8c-0.1,0-0.4,0-0.5,0.1c-0.1,0-0.1,0.1-0.1,0.2c0,0.3,0,1,0,1.6V96.2z"/>
			<path class="st0" d="M99,95.3c0-1.2,0-1.5,0-1.7c0-0.3-0.1-0.4-0.3-0.5c-0.1,0-0.2,0-0.3,0c-0.1,0-0.1,0-0.1-0.1
				c0-0.1,0.1-0.1,0.2-0.1c0.4,0,0.9,0,1.1,0c0.2,0,0.6,0,0.9,0c0.1,0,0.2,0,0.2,0.1c0,0.1,0,0.1-0.1,0.1c-0.1,0-0.1,0-0.2,0
				c-0.2,0-0.3,0.2-0.3,0.5c0,0.3,0,0.5,0,1.7v1.1c0,1.2,0.2,1.7,0.6,2c0.3,0.3,0.7,0.3,0.9,0.3c0.3,0,0.7-0.1,1-0.4
				c0.4-0.4,0.4-1.2,0.4-2v-1c0-1.2,0-1.5,0-1.7c0-0.3-0.1-0.4-0.3-0.5c-0.1,0-0.2,0-0.3,0c-0.1,0-0.1,0-0.1-0.1
				c0-0.1,0.1-0.1,0.2-0.1c0.4,0,0.8,0,0.8,0c0.1,0,0.6,0,0.8,0c0.1,0,0.2,0,0.2,0.1c0,0.1,0,0.1-0.1,0.1c-0.1,0-0.1,0-0.2,0
				c-0.2,0-0.3,0.2-0.3,0.5c0,0.3,0,0.5,0,1.7v0.9c0,0.9-0.1,1.8-0.7,2.4c-0.5,0.5-1.1,0.6-1.5,0.6c-0.4,0-1.1,0-1.6-0.6
				c-0.4-0.4-0.7-1-0.7-2.1V95.3z"/>
			<path class="st0" d="M107.6,98.3c-0.7-0.7-0.9-1.6-0.9-2.4c0-0.5,0.2-1.5,0.9-2.2c0.5-0.5,1.2-0.9,2.3-0.9c0.5,0,0.7,0,1.1,0.1
				c0.3,0,0.5,0.1,0.7,0.1c0.1,0,0.1,0,0.1,0.1c0,0.1,0,0.2,0,0.4c0,0.3,0,0.7,0,0.9c0,0.1,0,0.2-0.1,0.2c-0.1,0-0.1-0.1-0.1-0.2
				c0-0.2-0.1-0.5-0.3-0.7c-0.2-0.3-0.8-0.5-1.5-0.5c-0.6,0-1.1,0.2-1.4,0.5c-0.5,0.5-0.7,1.3-0.7,2.1c0,1.9,1.3,2.9,2.3,2.9
				c0.7,0,1.1-0.1,1.4-0.5c0.1-0.2,0.2-0.4,0.3-0.5c0-0.1,0-0.2,0.1-0.2c0.1,0,0.1,0.1,0.1,0.1c0,0.1-0.1,0.8-0.2,1.1
				c0,0.1-0.1,0.2-0.2,0.2c-0.3,0.1-0.9,0.2-1.3,0.2C109.1,99.2,108.3,98.9,107.6,98.3z"/>
			<path class="st0" d="M116.2,93.4l-1.1,0c-0.4,0-0.6,0.1-0.7,0.2c-0.1,0.1-0.1,0.2-0.1,0.3c0,0.1,0,0.1-0.1,0.1
				c-0.1,0-0.1,0-0.1-0.1c0-0.1,0.1-0.9,0.2-0.9c0-0.1,0-0.2,0.1-0.2c0.1,0,0.1,0.1,0.3,0.1c0.2,0,0.5,0,0.7,0h2.9
				c0.2,0,0.4,0,0.5,0c0.1,0,0.2,0,0.2,0c0.1,0,0.1,0,0.1,0.2c0,0.2,0,0.7,0,0.9c0,0.1,0,0.1-0.1,0.1c-0.1,0-0.1,0-0.1-0.2l0-0.1
				c0-0.2-0.2-0.4-0.9-0.5l-0.9,0v3.3c0,0.7,0,1.4,0,1.7c0,0.2,0.1,0.4,0.3,0.4c0.1,0,0.3,0,0.4,0c0.1,0,0.1,0,0.1,0.1
				c0,0.1-0.1,0.1-0.1,0.1c-0.5,0-1,0-1.2,0c-0.2,0-0.6,0-0.9,0c-0.1,0-0.1,0-0.1-0.1c0,0,0-0.1,0.1-0.1c0.1,0,0.2,0,0.3,0
				c0.1,0,0.2-0.2,0.2-0.4c0-0.3,0-1,0-1.7V93.4z"/>
		</g>
	</g>
</g>
</svg>
